<svg width="30" height="18" viewBox="0 0 30 18" fill="none" xmlns="http://www.w3.org/2000/svg">
  <path
    d="M17.1008 0.898676C18.2944 2.09235 18.2944 4.02718 17.1008 5.21967L5.21625 17.1042C4.02258 18.2979 2.08775 18.2979 0.895258 17.1042C-0.298419 15.9105 -0.298419 13.9757 0.895258 12.7832L12.7786 0.898676C13.9723 -0.295001 15.9071 -0.295001 17.0996 0.898676H17.1008Z"
    fill="url(#paint0_linear_4116_95435)" />
  <path
    d="M26.8178 0C28.5055 0 29.8738 1.36827 29.8738 3.05605V14.8277C29.8738 16.5155 28.5055 17.8838 26.8178 17.8838C25.13 17.8838 23.7617 16.5155 23.7617 14.8277V3.05605C23.7617 1.36827 25.13 0 26.8178 0Z"
    fill="url(#paint1_linear_4116_95435)" />
  <path
    d="M28.9777 0.899164C30.1714 2.09284 30.1714 4.02767 28.9777 5.22016L17.0932 17.1047C15.8995 18.2983 13.9647 18.2983 12.7722 17.1047C11.5785 15.911 11.5785 13.9762 12.7722 12.7837L24.6567 0.899164C25.8504 -0.294513 27.7852 -0.294513 28.9777 0.899164Z"
    fill="url(#paint2_linear_4116_95435)" />
  <path
    d="M28.3471 12.2964C29.8092 13.1397 30.3092 15.0092 29.4659 16.4701C28.6226 17.9322 26.7531 18.4323 25.2922 17.589C23.8301 16.7457 23.3301 14.8762 24.1734 13.4153C25.0167 11.9532 26.8862 11.4531 28.3471 12.2964Z"
    fill="#0066FF" />
  <defs>
    <linearGradient id="paint0_linear_4116_95435" x1="17.1013" y1="0.899235" x2="0.895407" y2="17.1051"
      gradientUnits="userSpaceOnUse">
      <stop stop-color="#992AFC" />
      <stop offset="0.32" stop-color="#6255FE" />
      <stop offset="1" stop-color="#0066FF" />
    </linearGradient>
    <linearGradient id="paint1_linear_4116_95435" x1="26.8178" y1="0" x2="26.8178" y2="17.8826"
      gradientUnits="userSpaceOnUse">
      <stop stop-color="#0066FF" stop-opacity="0.6" />
      <stop offset="1" stop-color="#0066FF" stop-opacity="0.15" />
    </linearGradient>
    <linearGradient id="paint2_linear_4116_95435" x1="28.9776" y1="0.898327" x2="12.7717" y2="17.1042"
      gradientUnits="userSpaceOnUse">
      <stop stop-color="#F57638" />
      <stop offset="0.282909" stop-color="#6D66FF" />
      <stop offset="0.87" stop-color="#1064FF" />
    </linearGradient>
  </defs>
</svg>