<svg width="220" height="24" viewBox="0 0 220 24" fill="none" xmlns="http://www.w3.org/2000/svg">
  <path
    d="M20.9919 2.056C22.4572 3.52129 22.4572 5.89636 20.9919 7.36019L6.40317 21.9489C4.93788 23.4142 2.5628 23.4142 1.09897 21.9489C-0.366322 20.4836 -0.366322 18.1086 1.09897 16.6447L15.6862 2.056C17.1515 0.590709 19.5266 0.590709 20.9904 2.056H20.9919Z"
    fill="url(#paint0_linear_4113_95404)" />
  <path
    d="M32.9194 0.952148C34.9912 0.952148 36.6708 2.63176 36.6708 4.70358V19.1538C36.6708 21.2256 34.9912 22.9052 32.9194 22.9052C30.8476 22.9052 29.168 21.2256 29.168 19.1538V4.70358C29.168 2.63176 30.8476 0.952148 32.9194 0.952148Z"
    fill="url(#paint1_linear_4113_95404)" />
  <path
    d="M35.572 2.056C37.0373 3.52129 37.0373 5.89636 35.572 7.36019L20.9832 21.9489C19.518 23.4142 17.1429 23.4142 15.679 21.9489C14.2138 20.4836 14.2138 18.1086 15.679 16.6447L30.2678 2.056C31.7331 0.590709 34.1081 0.590709 35.572 2.056Z"
    fill="url(#paint2_linear_4113_95404)" />
  <path
    d="M34.7963 16.0469C36.591 17.082 37.2049 19.3769 36.1697 21.1703C35.1345 22.9651 32.8396 23.5789 31.0463 22.5437C29.2515 21.5085 28.6377 19.2136 29.6728 17.4203C30.708 15.6255 33.0029 15.0117 34.7963 16.0469Z"
    fill="#0066FF" />
  <path fill-rule="evenodd" clip-rule="evenodd"
    d="M71.128 0.699219H68.0726L67.3741 2.72607H67.3399L66.6359 4.86828L66.3445 5.71409L69.3959 5.714H83.1815V15.4474H83.1795V16.2672H81.8718V19.1102L83.1795 19.1103H86.1675V16.7923C86.1688 16.7596 86.1695 16.7268 86.1695 16.6939V5.14242C86.1695 3.80776 85.0878 2.72607 83.7531 2.72607H70.4286L71.128 0.699219ZM63.1218 1.2281H42.6719V4.21603H63.1218V1.2281ZM59.5356 5.2068H58.1886L58.1905 5.20872H43.8416V5.21066H43.8397V14.926H61.952L61.952 7.62315C61.952 6.28849 60.8703 5.2068 59.5356 5.2068ZM81.0763 6.97717H66.7206V20.861C66.7206 22.2094 67.8142 23.3004 69.16 23.3004H86.229V20.3124H69.7085V17.463H81.0763L81.0762 14.4751L81.0763 9.9651V6.97717ZM46.8276 11.9381V8.19665H58.964V11.9381H46.8276ZM69.7085 14.4751V9.9651H78.0883V14.4751H69.7085ZM48.1082 15.8049H45.0604L46.5441 20.3124H42.6719V23.3003H63.1218V20.3124H59.2501L60.7309 15.8049H57.6834L56.2026 20.3124H49.5919L48.1082 15.8049Z"
    fill="#333333" />
  <path
    d="M212.936 23.1568C211.422 23.1568 210.114 22.8421 209.012 22.2127C207.917 21.5768 207.075 20.6786 206.485 19.5181C205.895 18.3511 205.6 16.9776 205.6 15.3975C205.6 13.8437 205.895 12.48 206.485 11.3065C207.081 10.1263 207.914 9.20846 208.983 8.55284C210.051 7.89066 211.307 7.55957 212.749 7.55957C213.68 7.55957 214.559 7.71036 215.385 8.01195C216.217 8.30698 216.952 8.76591 217.588 9.38876C218.23 10.0116 218.735 10.8049 219.102 11.7687C219.469 12.7259 219.653 13.8667 219.653 15.191V16.2826H207.271V13.883H216.24C216.234 13.2012 216.086 12.5947 215.798 12.0637C215.509 11.5261 215.106 11.1032 214.588 10.7951C214.077 10.4869 213.48 10.3329 212.798 10.3329C212.071 10.3329 211.431 10.5099 210.881 10.8639C210.33 11.2114 209.9 11.6703 209.592 12.2407C209.291 12.8045 209.137 13.4241 209.13 14.0994V16.1941C209.13 17.0726 209.291 17.8266 209.612 18.456C209.933 19.0789 210.382 19.5575 210.959 19.8918C211.536 20.2196 212.212 20.3835 212.985 20.3835C213.503 20.3835 213.972 20.3114 214.391 20.1672C214.811 20.0164 215.175 19.7968 215.483 19.5083C215.791 19.2198 216.024 18.8625 216.181 18.4363L219.505 18.81C219.296 19.6886 218.896 20.4557 218.306 21.1113C217.722 21.7603 216.975 22.2652 216.063 22.6258C215.152 22.9798 214.11 23.1568 212.936 23.1568Z"
    fill="#333333" />
  <path
    d="M195.518 23.1269C194.331 23.1269 193.269 22.8221 192.332 22.2124C191.394 21.6026 190.653 20.7175 190.109 19.5571C189.565 18.3966 189.293 16.987 189.293 15.3283C189.293 13.6499 189.568 12.2338 190.119 11.0799C190.676 9.91944 191.427 9.04418 192.371 8.45412C193.315 7.8575 194.367 7.5592 195.528 7.5592C196.413 7.5592 197.141 7.70999 197.711 8.01157C198.282 8.3066 198.734 8.66392 199.068 9.08352C199.403 9.49656 199.662 9.88665 199.845 10.2538H199.993V2.7207H203.563V22.8614H200.062V20.4815H199.845C199.662 20.8487 199.396 21.2388 199.049 21.6518C198.701 22.0583 198.242 22.4058 197.672 22.6942C197.101 22.9827 196.384 23.1269 195.518 23.1269ZM196.511 20.2061C197.265 20.2061 197.908 20.0029 198.439 19.5964C198.97 19.1834 199.373 18.6097 199.649 17.8754C199.924 17.1411 200.062 16.2855 200.062 15.3086C200.062 14.3318 199.924 13.4827 199.649 12.7616C199.38 12.0404 198.98 11.4798 198.449 11.0799C197.924 10.68 197.278 10.48 196.511 10.48C195.718 10.48 195.056 10.6865 194.525 11.0996C193.994 11.5126 193.594 12.083 193.325 12.8107C193.056 13.5385 192.922 14.3711 192.922 15.3086C192.922 16.2527 193.056 17.0952 193.325 17.8361C193.6 18.5704 194.004 19.1506 194.535 19.5768C195.072 19.9963 195.731 20.2061 196.511 20.2061Z"
    fill="#333333" />
  <path
    d="M180.76 23.1568C179.284 23.1568 178.006 22.8323 176.924 22.1832C175.842 21.5342 175.003 20.6261 174.407 19.4591C173.817 18.2921 173.521 16.9284 173.521 15.368C173.521 13.8076 173.817 12.4407 174.407 11.2671C175.003 10.0935 175.842 9.18223 176.924 8.53317C178.006 7.8841 179.284 7.55957 180.76 7.55957C182.235 7.55957 183.513 7.8841 184.595 8.53317C185.677 9.18223 186.513 10.0935 187.103 11.2671C187.699 12.4407 187.998 13.8076 187.998 15.368C187.998 16.9284 187.699 18.2921 187.103 19.4591C186.513 20.6261 185.677 21.5342 184.595 22.1832C183.513 22.8323 182.235 23.1568 180.76 23.1568ZM180.779 20.3049C181.579 20.3049 182.248 20.0852 182.785 19.646C183.323 19.2001 183.723 18.6035 183.985 17.8561C184.254 17.1087 184.388 16.2761 184.388 15.3582C184.388 14.4338 184.254 13.5979 183.985 12.8504C183.723 12.0965 183.323 11.4966 182.785 11.0508C182.248 10.6049 181.579 10.382 180.779 10.382C179.96 10.382 179.278 10.6049 178.734 11.0508C178.196 11.4966 177.793 12.0965 177.524 12.8504C177.262 13.5979 177.131 14.4338 177.131 15.3582C177.131 16.2761 177.262 17.1087 177.524 17.8561C177.793 18.6035 178.196 19.2001 178.734 19.646C179.278 20.0852 179.96 20.3049 180.779 20.3049Z"
    fill="#333333" />
  <path
    d="M172.102 9.81961H168.507C168.405 9.23012 168.216 8.70791 167.94 8.25299C167.665 7.79165 167.322 7.4008 166.912 7.08042C166.502 6.76005 166.034 6.51977 165.509 6.35959C164.99 6.19299 164.429 6.1097 163.827 6.1097C162.757 6.1097 161.808 6.37881 160.982 6.91703C160.155 7.44885 159.508 8.23056 159.04 9.26216C158.573 10.2873 158.339 11.54 158.339 13.0201C158.339 14.5259 158.573 15.7945 159.04 16.8261C159.515 17.8513 160.162 18.6266 160.982 19.152C161.808 19.671 162.754 19.9305 163.817 19.9305C164.407 19.9305 164.958 19.8537 165.47 19.6999C165.989 19.5397 166.454 19.3058 166.864 18.9983C167.28 18.6907 167.63 18.3127 167.912 17.8641C168.2 17.4156 168.399 16.903 168.507 16.3264L172.102 16.3456C171.967 17.2811 171.676 18.1589 171.227 18.979C170.785 19.7992 170.205 20.5232 169.488 21.1512C168.77 21.7727 167.931 22.2597 166.97 22.6121C166.009 22.9581 164.942 23.1311 163.769 23.1311C162.039 23.1311 160.495 22.7306 159.137 21.9297C157.778 21.1287 156.708 19.9722 155.926 18.46C155.145 16.9479 154.754 15.1346 154.754 13.0201C154.754 10.8993 155.148 9.08595 155.936 7.5802C156.724 6.06805 157.797 4.91151 159.156 4.11057C160.514 3.30964 162.052 2.90918 163.769 2.90918C164.865 2.90918 165.884 3.06296 166.826 3.37052C167.767 3.67807 168.607 4.1298 169.344 4.72569C170.081 5.31517 170.686 6.03922 171.16 6.89781C171.641 7.75 171.955 8.72393 172.102 9.81961Z"
    fill="#333333" />
  <path
    d="M152.711 11.749L149.466 12.103C149.374 11.7752 149.213 11.4671 148.984 11.1786C148.761 10.8901 148.459 10.6574 148.079 10.4804C147.699 10.3033 147.233 10.2148 146.683 10.2148C145.942 10.2148 145.319 10.3755 144.814 10.6967C144.316 11.018 144.07 11.4343 144.077 11.9457C144.07 12.3849 144.231 12.7423 144.558 13.0176C144.893 13.293 145.444 13.5192 146.211 13.6962L148.787 14.2469C150.216 14.5551 151.279 15.0435 151.974 15.7122C152.675 16.381 153.029 17.2562 153.036 18.338C153.029 19.2887 152.75 20.1278 152.2 20.8556C151.656 21.5768 150.898 22.1406 149.928 22.5471C148.958 22.9536 147.843 23.1568 146.584 23.1568C144.735 23.1568 143.247 22.77 142.12 21.9964C140.992 21.2162 140.32 20.1311 140.104 18.7412L143.575 18.4068C143.732 19.0887 144.067 19.6033 144.578 19.9508C145.09 20.2983 145.755 20.472 146.575 20.472C147.42 20.472 148.099 20.2983 148.61 19.9508C149.128 19.6033 149.387 19.1739 149.387 18.6625C149.387 18.2298 149.22 17.8725 148.886 17.5906C148.558 17.3087 148.046 17.0923 147.351 16.9415L144.775 16.4006C143.326 16.099 142.254 15.5909 141.559 14.8763C140.864 14.1551 140.52 13.2438 140.526 12.1424C140.52 11.2114 140.772 10.405 141.284 9.72312C141.802 9.03472 142.519 8.50367 143.437 8.12996C144.362 7.7497 145.427 7.55957 146.634 7.55957C148.404 7.55957 149.797 7.93655 150.813 8.69052C151.836 9.44448 152.469 10.464 152.711 11.749Z"
    fill="#333333" />
  <path
    d="M130.623 22.8619V7.75639H134.075V10.274H134.232C134.508 9.40201 134.98 8.72999 135.648 8.25795C136.324 7.77934 137.094 7.54004 137.959 7.54004C138.156 7.54004 138.376 7.54987 138.618 7.56954C138.867 7.58265 139.074 7.6056 139.238 7.63838V10.9132C139.087 10.8608 138.848 10.8149 138.52 10.7755C138.199 10.7296 137.887 10.7067 137.586 10.7067C136.937 10.7067 136.353 10.8477 135.835 11.1296C135.324 11.4049 134.921 11.7885 134.626 12.2802C134.331 12.7719 134.183 13.339 134.183 13.9815V22.8619H130.623Z"
    fill="#333333" />
  <path
    d="M119.76 23.1667C118.803 23.1667 117.941 22.9962 117.173 22.6553C116.413 22.3078 115.81 21.7964 115.364 21.1211C114.925 20.4458 114.705 19.6132 114.705 18.6232C114.705 17.7709 114.862 17.0661 115.177 16.5088C115.492 15.9515 115.921 15.5057 116.465 15.1713C117.01 14.837 117.623 14.5846 118.304 14.4141C118.993 14.2371 119.704 14.1092 120.438 14.0306C121.324 13.9388 122.041 13.8568 122.592 13.7847C123.143 13.706 123.543 13.588 123.792 13.4307C124.048 13.2668 124.176 13.0143 124.176 12.6734V12.6144C124.176 11.8736 123.956 11.2999 123.517 10.8934C123.077 10.4869 122.445 10.2837 121.619 10.2837C120.747 10.2837 120.055 10.4738 119.544 10.8541C119.039 11.2343 118.698 11.6834 118.521 12.2014L115.197 11.7293C115.459 10.8115 115.892 10.0444 116.495 9.42809C117.098 8.80525 117.836 8.33976 118.708 8.03162C119.58 7.71692 120.543 7.55957 121.599 7.55957C122.327 7.55957 123.051 7.6448 123.772 7.81526C124.494 7.98572 125.152 8.26764 125.749 8.66101C126.346 9.04783 126.824 9.57561 127.185 10.2443C127.552 10.9131 127.736 11.749 127.736 12.7521V22.8618H124.313V20.7867H124.195C123.979 21.2063 123.674 21.5997 123.281 21.9669C122.894 22.3275 122.405 22.6192 121.815 22.8421C121.232 23.0585 120.547 23.1667 119.76 23.1667ZM120.684 20.5507C121.399 20.5507 122.019 20.4098 122.543 20.1278C123.068 19.8394 123.471 19.4591 123.753 18.9871C124.041 18.515 124.185 18.0004 124.185 17.4431V15.6631C124.074 15.7548 123.884 15.8401 123.615 15.9188C123.353 15.9974 123.058 16.0663 122.73 16.1253C122.402 16.1843 122.078 16.2367 121.756 16.2826C121.435 16.3285 121.156 16.3679 120.92 16.4006C120.389 16.4728 119.914 16.5908 119.494 16.7547C119.075 16.9186 118.744 17.148 118.501 17.4431C118.259 17.7315 118.137 18.1053 118.137 18.5642C118.137 19.2198 118.377 19.7148 118.855 20.0492C119.334 20.3835 119.943 20.5507 120.684 20.5507Z"
    fill="#333333" />
  <path
    d="M91.6738 3.17773H96.0373L101.881 17.4407H102.112L107.955 3.17773H112.319V22.8614H108.897V9.33849H108.714L103.275 22.8037H100.718L95.278 9.30965H95.0954V22.8614H91.6738V3.17773Z"
    fill="#333333" />
  <defs>
    <linearGradient id="paint0_linear_4113_95404" x1="20.9926" y1="2.05668" x2="1.09915" y2="21.9501"
      gradientUnits="userSpaceOnUse">
      <stop stop-color="#992AFC" />
      <stop offset="0.32" stop-color="#6255FE" />
      <stop offset="1" stop-color="#0066FF" />
    </linearGradient>
    <linearGradient id="paint1_linear_4113_95404" x1="32.9194" y1="0.952148" x2="32.9194" y2="22.9038"
      gradientUnits="userSpaceOnUse">
      <stop stop-color="#0066FF" stop-opacity="0.6" />
      <stop offset="1" stop-color="#0066FF" stop-opacity="0.15" />
    </linearGradient>
    <linearGradient id="paint2_linear_4113_95404" x1="35.5719" y1="2.05497" x2="15.6785" y2="21.9484"
      gradientUnits="userSpaceOnUse">
      <stop stop-color="#F57638" />
      <stop offset="0.282909" stop-color="#6D66FF" />
      <stop offset="0.87" stop-color="#1064FF" />
    </linearGradient>
  </defs>
</svg>